HIERARCHY
ROOT root
{
	OFFSET 0.000000 0.000000 0.000000
	CHANNELS 6 Xposition Yposition Zposition Zrotation Yrotation Xrotation
	JOINT lhip
	{
		OFFSET 0.058581 -0.082280 -0.017664
		CHANNELS 3 Zrotation Yrotation Xrotation
		JOINT lknee
		{
			OFFSET 0.043451 -0.386469 0.008037
			CHANNELS 3 Zrotation Yrotation Xrotation
			JOINT lankle
			{
				OFFSET -0.014790 -0.426874 -0.037428
				CHANNELS 3 Zrotation Yrotation Xrotation
				JOINT ltoe
				{
					OFFSET 0.041054 -0.060286 0.122042
					CHANNELS 3 Zrotation Yrotation Xrotation
					End Site
					{
						OFFSET 0.000000 0.000000 0.000000
					}
				}
			}
		}
	}
	JOINT rhip
	{
		OFFSET -0.060310 -0.090513 -0.013543
		CHANNELS 3 Zrotation Yrotation Xrotation
		JOINT rknee
		{
			OFFSET -0.043257 -0.383688 -0.004843
			CHANNELS 3 Zrotation Yrotation Xrotation
			JOINT rankle
			{
				OFFSET 0.019056 -0.420046 -0.034562
				CHANNELS 3 Zrotation Yrotation Xrotation
				JOINT rtoe
				{
					OFFSET -0.034840 -0.062106 0.130323
					CHANNELS 3 Zrotation Yrotation Xrotation
					End Site
					{
						OFFSET 0.000000 0.000000 0.000000
					}
				}
			}
		}
	}
	JOINT lowerback
	{
		OFFSET 0.004439 0.124404 -0.038385
		CHANNELS 3 Zrotation Yrotation Xrotation
		JOINT upperback
		{
			OFFSET 0.004488 0.137956 0.026820
			CHANNELS 3 Zrotation Yrotation Xrotation
			JOINT chest
			{
				OFFSET -0.002265 0.056032 0.002855
				CHANNELS 3 Zrotation Yrotation Xrotation
				JOINT lowerneck
				{
					OFFSET -0.013390 0.211636 -0.033468
					CHANNELS 3 Zrotation Yrotation Xrotation
					JOINT upperneck
					{
						OFFSET 0.010113 0.088937 0.050410
						CHANNELS 3 Zrotation Yrotation Xrotation
						End Site
						{
							OFFSET 0.000000 0.000000 0.000000
						}
					}
				}
				JOINT lclavicle
				{
					OFFSET 0.071702 0.114000 -0.018898
					CHANNELS 3 Zrotation Yrotation Xrotation
					JOINT lshoulder
					{
						OFFSET 0.122921 0.045205 -0.019046
						CHANNELS 3 Zrotation Yrotation Xrotation
						JOINT lelbow
						{
							OFFSET 0.255332 -0.015649 -0.022946
							CHANNELS 3 Zrotation Yrotation Xrotation
							JOINT lwrist
							{
								OFFSET 0.265709 0.012698 -0.007375
								CHANNELS 3 Zrotation Yrotation Xrotation
								End Site
								{
									OFFSET 0.000000 0.000000 0.000000
								}
							}
						}
					}
				}
				JOINT rclavicle
				{
					OFFSET -0.082954 0.112472 -0.023707
					CHANNELS 3 Zrotation Yrotation Xrotation
					JOINT rshoulder
					{
						OFFSET -0.113228 0.046853 -0.008472
						CHANNELS 3 Zrotation Yrotation Xrotation
						JOINT relbow
						{
							OFFSET -0.260127 -0.014369 -0.031269
							CHANNELS 3 Zrotation Yrotation Xrotation
							JOINT rwrist
							{
								OFFSET -0.269108 0.006794 -0.006027
								CHANNELS 3 Zrotation Yrotation Xrotation
								End Site
								{
									OFFSET 0.000000 0.000000 0.000000
								}
							}
						}
					}
				}
			}
		}
	}
}
MOTION
Frames: 5
Frame Time: 0.033333
0.469665 0.177711 0.991779 84.970489 3.287455 95.286922 4.125679 5.389414 -0.722125 3.439813 -0.725515 -7.424211 -0.027251 12.782344 -3.607197 0.000000 -0.000000 0.000000 -1.306880 -1.006922 -6.081314 -1.229175 4.669380 0.748036 5.964923 -4.998724 -3.603523 0.000000 -0.000000 0.000000 -0.205005 0.274106 -1.908582 3.444107 -3.085461 1.362585 0.211018 2.189258 -7.412505 -0.421588 -2.697994 8.061791 4.000967 -2.612963 -2.435618 -19.996496 5.430539 -6.124413 -62.800654 -2.563854 26.484053 4.381115 -17.711764 17.963301 -12.284531 -4.732595 17.764854 22.412331 -1.380210 -2.136299 54.601851 3.270949 18.843947 -1.951298 14.617618 8.858123 8.509450 2.304405 8.040024 
0.469483 0.177455 0.991446 84.951018 3.262827 95.244303 4.058907 5.281682 -0.655718 3.504417 -0.633457 -7.514082 -0.150691 12.818541 -3.510045 0.000000 -0.000000 0.000000 -1.330166 -1.063014 -6.067223 -1.253255 4.668373 0.753521 6.134194 -4.929629 -3.581050 0.000000 -0.000000 0.000000 -0.134898 0.254396 -2.134562 3.585404 -3.271941 1.241348 0.243435 1.628206 -7.070970 -0.675757 -2.281095 8.807465 3.769504 -2.505543 -2.413762 -20.166260 5.521514 -5.991874 -62.729867 -2.396527 26.372636 4.069248 -17.004670 17.001547 -11.419159 -5.754939 16.825504 22.058209 -0.089460 -1.420231 54.818914 3.420105 19.403206 -1.964719 13.857748 7.675317 7.574314 2.779810 7.497043 
0.469583 0.176926 0.991204 85.054090 3.231915 95.285007 4.051995 5.231879 -0.735530 3.473571 -0.626583 -7.507100 -0.289051 12.743125 -3.474360 0.000000 -0.000000 0.000000 -1.317201 -1.146352 -6.041126 -1.265338 4.714874 0.614401 6.065401 -4.912443 -3.589514 0.000000 -0.000000 0.000000 -0.137004 0.215770 -2.163719 3.626973 -3.310664 1.040667 0.226140 1.403008 -6.641058 -0.760547 -2.324617 8.566870 3.572876 -2.733685 -2.511989 -20.419563 5.729280 -6.008615 -62.437732 -2.592946 26.181719 3.455594 -16.393889 17.018483 -10.697901 -6.726726 15.955600 22.231192 -0.257131 -1.599378 54.708229 3.632144 19.477676 -1.730142 13.348717 7.897065 7.242824 2.877190 7.439095 
0.470129 0.176274 0.990851 85.340459 3.205402 95.472730 4.018883 5.089508 -0.936906 3.509842 -0.851020 -7.584991 -0.445240 12.767486 -3.476328 0.000000 -0.000000 0.000000 -1.241195 -1.069338 -5.946504 -1.317069 4.719156 0.126004 5.752500 -5.103282 -3.732828 0.000000 -0.000000 0.000000 -0.141606 -0.040447 -2.351835 3.543924 -3.344812 0.926962 0.210052 1.439559 -6.516934 -0.806438 -2.811899 8.539911 3.705155 -3.014671 -2.246346 -20.343818 5.844084 -5.868404 -62.532555 -2.681071 26.205371 3.059452 -15.503718 16.927211 -9.674368 -7.738199 14.924059 22.071278 -0.215511 -1.501623 55.028739 3.738027 19.587002 -1.079884 12.222998 7.942462 6.672681 3.212079 6.799444 
0.470031 0.176234 0.990810 85.350862 3.223834 95.455317 4.028708 5.062359 -0.909601 3.531408 -0.928028 -7.631346 -0.427089 12.850705 -3.470166 0.000000 -0.000000 0.000000 -1.204693 -1.040497 -5.898740 -1.335643 4.761058 0.038275 5.760727 -5.189370 -3.739945 0.000000 -0.000000 0.000000 -0.108534 -0.050744 -2.226824 3.469275 -3.329051 0.861570 0.233920 1.592851 -6.555518 -0.873615 -3.205617 8.492434 3.792293 -3.081768 -2.093762 -20.234743 5.749948 -5.816224 -62.722604 -2.697624 26.309062 3.172873 -15.274490 16.785623 -9.587378 -7.671028 14.833600 21.873327 0.354159 -1.179308 55.369814 3.496727 19.818836 -1.200250 11.828561 7.209849 6.299319 3.437671 6.323974 
